<?xml version="1.0" encoding="UTF-8" standalone="no"?>
<svg
   viewBox="0 0 567.31177 567.31177"
   version="1.1"
   id="svg2686"
   width="567.31177"
   height="567.31177"
   xmlns="http://www.w3.org/2000/svg"
   xmlns:svg="http://www.w3.org/2000/svg">
  <defs
     id="defs2690" />
  <!--! Font Awesome Pro 6.2.1 by @fontawesome - https://fontawesome.com License - https://fontawesome.com/license (Commercial License) Copyright 2022 Fonticons, Inc. -->
  <path
     d="m 110.06118,299.99006 c 16.40487,6.6468 36.62813,7.49533 49.14393,-5.02046 L 294.9696,159.2051 c 12.51579,-12.51579 11.66725,-32.73905 5.02045,-49.14393 -11.73796,-28.849967 -5.79827,-63.215343 17.60696,-86.620579 31.25413,-31.2541229 81.88296,-31.2541209 113.13709,4e-6 21.49604,21.49604 28.21355,52.255175 20.08183,79.478805 -1.20209,3.88908 -0.35356,8.13171 2.54559,11.03086 2.89914,2.89913 7.14178,3.74767 11.03086,2.54558 27.22362,-8.13172 57.98275,-1.41421 79.4788,20.08184 31.25412,31.25412 31.25413,81.88297 0,113.13709 -23.40523,23.40522 -57.77062,29.34492 -86.62058,17.60695 -16.40487,-6.6468 -36.62813,-7.49533 -49.14393,5.02046 l -135.76449,135.7645 c -12.51579,12.51579 -11.66724,32.73904 -5.02046,49.14392 11.73797,28.84997 5.79828,63.21535 -17.60695,86.62058 -31.25413,31.25413 -81.88298,31.25412 -113.13709,0 -21.49604,-21.49604 -28.21356,-52.25518 -20.08184,-79.4788 1.20209,-3.88908 0.35356,-8.13172 -2.54558,-11.03086 -2.89913,-2.89914 -7.14177,-3.74766 -11.03086,-2.54558 -27.223624,8.13172 -57.982767,1.41421 -79.478809,-20.08184 -31.2541204,-31.25411 -31.2541226,-81.88297 10e-7,-113.13709 23.405235,-23.40523 57.770613,-29.34493 86.620588,-17.60695 z"
     id="path2684"
     style="fill:#886600;fill-opacity:1" />
</svg>
